<?xml version="1.0" encoding="UTF-8" standalone="no"?>
<!-- Generator: Adobe Illustrator 23.0.3, SVG Export Plug-In . SVG Version: 6.00 Build 0)  -->

<svg
   xmlns:dc="http://purl.org/dc/elements/1.1/"
   xmlns:cc="http://creativecommons.org/ns#"
   xmlns:rdf="http://www.w3.org/1999/02/22-rdf-syntax-ns#"
   xmlns:svg="http://www.w3.org/2000/svg"
   xmlns="http://www.w3.org/2000/svg"
   xmlns:sodipodi="http://sodipodi.sourceforge.net/DTD/sodipodi-0.dtd"
   xmlns:inkscape="http://www.inkscape.org/namespaces/inkscape"
   version="1.1"
   x="0px"
   y="0px"
   viewBox="0 0 119.4 117.48"
   xml:space="preserve"
   id="svg94"
   sodipodi:docname="green-drawgon.svg"
   inkscape:version="0.92.2 5c3e80d, 2017-08-06"
   width="119.4"
   height="117.48"><metadata
     id="metadata100"><rdf:RDF><cc:Work
         rdf:about=""><dc:format>image/svg+xml</dc:format><dc:type
           rdf:resource="http://purl.org/dc/dcmitype/StillImage" /><dc:title></dc:title></cc:Work></rdf:RDF></metadata><defs
     id="defs98" /><sodipodi:namedview
     pagecolor="#ffffff"
     bordercolor="#666666"
     borderopacity="1"
     objecttolerance="10"
     gridtolerance="10"
     guidetolerance="10"
     inkscape:pageopacity="0"
     inkscape:pageshadow="2"
     inkscape:window-width="1326"
     inkscape:window-height="839"
     id="namedview96"
     showgrid="false"
     inkscape:zoom="3.2728942"
     inkscape:cx="61.956998"
     inkscape:cy="47.317602"
     inkscape:window-x="0"
     inkscape:window-y="0"
     inkscape:window-maximized="0"
     inkscape:current-layer="g89"
     fit-margin-top="0"
     fit-margin-left="0"
     fit-margin-right="0"
     fit-margin-bottom="0" /><style
     type="text/css"
     id="style2">
	.st0{fill:#501515;}
	.st1{fill:#CC9933;}
	.st2{fill:#990000;}
	.st3{fill:#FFFF33;}
	.st4{fill:#CC3333;}
	.st5{fill:#BF4645;}
	.st6{fill:#FF6666;}
	.st7{fill:#FF9999;}
	.st8{fill:#663333;}
	.st9{fill:#FFCC66;}
	.st10{fill:#CC0000;}
	.st11{fill:#FF3333;}
	.st12{fill:#FFCCCC;}
</style><g
     id="Layer_4"
     style="display:inline"
     transform="translate(-233.32,-92.17)" /><g
     id="Layer_5"
     style="display:inline"
     transform="translate(-233.32,-92.17)" /><g
     id="Layer_3"
     style="display:inline"
     transform="translate(-233.32,-92.17)" /><g
     id="Layer_2"
     style="display:inline"
     transform="translate(-233.32,-92.17)"><g
       id="g91"><g
         id="g47"><polygon
           class="st0"
           points="259.3,132.51 257.31,101.01 264.99,106.59 279.4,142.39 266.56,154.07 248.72,135.18 "
           id="polygon7"
           style="fill:#173c18;fill-opacity:1" /><polygon
           class="st0"
           points="275.42,160.85 246.26,138.54 257.31,157.9 254.14,163.29 275.81,171.81 "
           id="polygon9"
           style="fill:#173c18;fill-opacity:1" /><polyline
           class="st1"
           points="279.21,148.11 253.9,126.98 276.37,155.67    "
           id="polyline11"
           style="fill:#cc9933" /><polygon
           class="st0"
           points="272.83,169.43 254.44,166.75 264.01,174.1 262.33,182.25 275.54,179.04 "
           id="polygon13"
           style="fill:#173c15;fill-opacity:1" /><polyline
           class="st1"
           points="269.28,177.62 257.31,185.59 271.82,184.16    "
           id="polyline15"
           style="fill:#cc9933" /><polyline
           class="st1"
           points="268.53,163.33 245.54,163.27 269.08,172.48    "
           id="polyline17"
           style="fill:#cc9933" /><polyline
           class="st1"
           points="272.15,159.82 258.73,153.67 246.26,138.54 233.32,133.6 248.72,135.18 262.47,148.08      275.56,152.66    "
           id="polyline19"
           style="fill:#cc9933" /><polyline
           class="st1"
           points="274.28,144 267.58,129.31 261.11,105.29 249.46,92.17 265.94,103.08 273.38,124.61 283.7,138.54         "
           id="polyline21"
           style="fill:#cc9933" /><polygon
           class="st0"
           points="280.62,157.39 262.91,147.22 267.58,161.76 275.81,166.16 "
           id="polygon23"
           style="fill:#173c15;fill-opacity:1" /><polygon
           class="st2"
           points="268.69,173.99 287.29,175.9 275.81,166.16 "
           id="polygon25"
           style="fill:#2d6a1c;fill-opacity:1" /><polygon
           class="st0"
           points="275.81,166.16 287.29,175.9 280.62,157.39 "
           id="polygon27"
           style="fill:#173c15;fill-opacity:1" /><polygon
           class="st3"
           points="275.97,163.5 272.41,157.8 278.57,161.53 280.99,166.16 "
           id="polygon29"
           style="fill:#ffff33" /><polygon
           class="st4"
           points="268.69,173.99 287.71,195.74 287.29,175.9 "
           id="polygon31"
           style="fill:#449833;fill-opacity:1" /><polygon
           class="st5"
           points="279.19,199.52 287.71,195.74 268.69,173.99 263.57,184.86 272.88,190.15 "
           id="polygon33"
           style="fill:#429545;fill-opacity:1" /><polygon
           class="st6"
           points="279.19,199.52 285.77,209.65 293.18,205.36 293.18,199.52 287.71,195.74 "
           id="polygon35"
           style="fill:#5ec966;fill-opacity:1" /><polygon
           class="st2"
           points="268.69,173.99 275.81,166.16 267.58,161.76 "
           id="polygon37"
           style="fill:#2d6a00;fill-opacity:1" /><polygon
           class="st7"
           points="280.62,157.39 293.18,156.69 293.18,175.36 287.29,175.9 "
           id="polygon39"
           style="fill:#94da99;fill-opacity:1" /><polygon
           class="st6"
           points="293.18,156.69 293.18,136.03 275.81,136.03 262.91,147.22 280.62,157.39 "
           id="polygon41"
           style="fill:#5ec966;fill-opacity:1" /><polygon
           class="st7"
           points="293.18,199.52 293.18,175.36 287.29,175.9 287.71,195.74 "
           id="polygon43"
           style="fill:#94da99;fill-opacity:1" /><polygon
           points="290.22,197.58 287.64,192.06 282.82,190.15 286.92,196.04 "
           id="polygon45" /></g><g
         id="g89"><polygon
           class="st8"
           points="326.74,132.51 328.73,101.01 321.05,106.59 306.64,142.39 319.48,154.07 337.32,135.18 "
           id="polygon49"
           style="fill:#2f5233;fill-opacity:1" /><polygon
           class="st8"
           points="310.63,160.85 339.78,138.54 328.73,157.9 331.9,163.29 310.23,171.81 "
           id="polygon51"
           style="fill:#2f5233;fill-opacity:1" /><polyline
           class="st9"
           points="306.83,148.11 332.14,126.98 309.68,155.67    "
           id="polyline53"
           style="fill:#ffcc66" /><polygon
           class="st8"
           points="313.21,169.43 331.6,166.75 322.03,174.1 323.71,182.25 310.5,179.04 "
           id="polygon55"
           style="fill:#2f5234;fill-opacity:1" /><polyline
           class="st9"
           points="316.76,177.62 328.73,185.59 314.22,184.16    "
           id="polyline57"
           style="fill:#ffcc66" /><polyline
           class="st9"
           points="317.51,163.33 340.5,163.27 316.96,172.48    "
           id="polyline59"
           style="fill:#ffcc66" /><polyline
           class="st9"
           points="313.89,159.82 327.31,153.67 339.78,138.54 352.72,133.6 337.32,135.18 323.57,148.08      310.48,152.66    "
           id="polyline61"
           style="fill:#ffcc66" /><polyline
           class="st9"
           points="311.76,144 318.46,129.31 324.93,105.29 336.58,92.17 320.1,103.08 312.67,124.61 302.34,138.54         "
           id="polyline63"
           style="fill:#ffcc66" /><polygon
           class="st2"
           points="305.42,157.39 323.13,147.22 318.46,161.76 310.23,166.16 "
           id="polygon65"
           style="fill:#2d6a00;fill-opacity:1" /><polygon
           class="st10"
           points="317.35,173.99 298.75,175.9 310.23,166.16 "
           id="polygon67"
           style="fill:#3f8d00;fill-opacity:1" /><polygon
           class="st10"
           points="310.23,166.16 298.75,175.9 305.42,157.39 "
           id="polygon69"
           style="fill:#3f8d28;fill-opacity:1" /><polygon
           class="st3"
           points="310.07,163.5 313.63,157.8 307.48,161.53 305.05,166.16 "
           id="polygon71"
           style="fill:#ffff33" /><polygon
           class="st11"
           points="317.35,173.99 298.33,195.74 298.75,175.9 "
           id="polygon73"
           style="fill:#55bb33;fill-opacity:1" /><polygon
           class="st6"
           points="306.85,199.52 298.33,195.74 317.35,173.99 322.47,184.86 313.16,190.15 "
           id="polygon75"
           style="fill:#5ec966;fill-opacity:1" /><polygon
           class="st7"
           points="306.85,199.52 300.27,209.65 292.86,205.36 292.86,199.52 298.33,195.74 "
           id="polygon77"
           style="fill:#94da99;fill-opacity:1" /><polygon
           class="st2"
           points="317.35,173.99 310.23,166.16 318.46,161.76 "
           id="polygon79"
           style="fill:#2d6a00;fill-opacity:1" /><polygon
           class="st12"
           points="305.42,157.39 292.86,156.69 292.86,175.36 298.75,175.9 "
           id="polygon81"
           style="fill:#c9eace;fill-opacity:1" /><polygon
           class="st7"
           points="292.86,156.69 292.86,136.03 310.23,136.03 323.13,147.22 305.42,157.39 "
           id="polygon83"
           style="fill:#94da99;fill-opacity:1" /><polygon
           class="st12"
           points="292.86,199.52 292.86,175.36 298.75,175.9 298.33,195.74 "
           id="polygon85"
           style="fill:#c9eace;fill-opacity:1" /><polygon
           points="295.82,197.58 298.41,192.06 303.22,190.15 299.12,196.04 "
           id="polygon87" /></g></g></g></svg>