<?xml version="1.0" standalone="no"?>
<!DOCTYPE svg PUBLIC "-//W3C//DTD SVG 20010904//EN"
 "http://www.w3.org/TR/2001/REC-SVG-20010904/DTD/svg10.dtd">
<svg version="1.0" xmlns="http://www.w3.org/2000/svg"
 width="696.000000pt" height="696.000000pt" viewBox="0 0 696.000000 696.000000"
 preserveAspectRatio="xMidYMid meet">
<metadata>
Created by potrace 1.11, written by Peter Selinger 2001-2013
</metadata>
<g transform="translate(0.000000,696.000000) scale(0.100000,-0.100000)"
fill="#000000" stroke="none">
<path d="M634 6219 c-3 -6 -2 -21 4 -32 21 -46 114 -262 116 -272 1 -5 4 -14
8 -20 3 -5 22 -50 43 -100 20 -49 43 -103 50 -120 8 -16 42 -95 75 -175 34
-80 69 -163 79 -185 10 -22 29 -67 42 -100 13 -33 27 -61 32 -63 4 -2 7 -12 7
-21 0 -10 3 -21 7 -24 3 -4 14 -30 25 -59 l18 -52 -36 40 c-20 21 -73 78 -117
125 -45 48 -134 142 -197 209 -63 68 -135 145 -160 171 -79 84 -254 270 -290
309 -119 127 -152 160 -165 160 -8 0 -15 -6 -15 -13 0 -8 36 -87 81 -178 45
-90 130 -265 190 -389 60 -124 114 -232 119 -240 6 -8 15 -26 21 -40 6 -14 30
-64 54 -112 23 -49 37 -85 30 -80 -7 4 -46 37 -86 74 -41 36 -83 75 -95 85
-12 10 -58 52 -104 93 -46 41 -91 82 -100 90 -9 8 -50 44 -90 80 -137 122
-133 119 -145 100 -6 -9 15 -46 120 -222 6 -9 25 -43 44 -75 19 -32 38 -59 43
-61 4 -2 8 -9 8 -15 0 -7 18 -40 40 -75 22 -34 40 -67 40 -72 0 -4 4 -10 8
-12 4 -1 46 -67 92 -146 47 -78 104 -173 127 -210 23 -37 46 -73 49 -81 4 -8
56 -95 116 -193 59 -98 108 -183 108 -188 0 -6 4 -10 9 -10 5 0 14 -14 21 -30
7 -17 38 -52 69 -78 31 -26 58 -49 61 -52 3 -3 30 -25 60 -50 30 -25 57 -47
60 -50 3 -3 57 -48 120 -100 63 -52 126 -105 140 -116 14 -12 68 -57 120 -100
52 -43 97 -81 100 -84 3 -3 48 -41 100 -84 162 -134 281 -233 343 -286 4 -3
14 -33 22 -66 37 -142 131 -350 218 -479 98 -145 245 -300 372 -390 44 -32 65
-54 66 -68 0 -12 2 -29 5 -37 2 -8 8 -37 13 -65 6 -27 14 -72 19 -99 10 -47 8
-141 -2 -202 -3 -16 -8 -54 -11 -84 -3 -30 -8 -71 -10 -90 -2 -19 -7 -62 -10
-95 -3 -33 -9 -73 -12 -90 l-5 -30 28 36 c16 20 38 48 49 63 44 62 54 72 56
56 1 -8 4 -26 7 -40 6 -34 6 -242 -1 -310 -3 -30 -9 -100 -12 -155 -4 -55 -9
-103 -12 -107 -2 -5 -1 -8 4 -8 4 0 26 39 47 86 22 47 45 88 50 91 6 3 8 3 5
-1 -4 -4 0 -37 8 -74 8 -37 16 -78 18 -92 1 -14 5 -38 9 -55 l6 -30 520 1
c286 0 521 2 524 5 4 4 13 47 22 109 2 19 7 43 10 52 3 10 8 30 10 45 3 15 6
29 8 30 2 2 20 -35 42 -82 37 -81 60 -110 49 -63 -5 22 -8 61 -22 238 -11 132
-8 302 6 334 l12 29 24 -34 c13 -19 28 -39 33 -44 5 -6 17 -23 26 -38 21 -32
40 -36 31 -6 -4 11 -8 39 -11 62 -6 75 -13 141 -19 182 -13 106 -16 135 -19
192 -2 34 0 79 4 100 5 21 12 54 15 73 3 19 8 42 10 50 2 8 7 38 11 65 4 34
13 55 28 67 179 140 263 221 359 349 74 100 127 185 120 193 -4 3 -2 6 4 6 21
0 139 290 159 393 4 23 3 22 164 155 69 57 139 115 156 130 16 15 66 56 110
92 43 35 81 67 84 70 3 3 30 25 60 50 30 25 57 47 60 50 3 3 84 71 180 150 96
80 180 149 186 155 6 5 33 28 60 50 71 58 116 106 139 148 45 81 380 632 387
635 5 2 8 7 8 12 0 9 101 182 111 190 3 3 9 15 13 28 4 12 11 22 16 22 4 0 10
8 14 18 3 9 11 26 18 36 31 47 78 125 78 130 0 3 13 25 30 49 16 25 30 50 30
56 0 6 4 11 8 11 4 0 18 19 30 43 12 23 34 61 48 85 35 60 21 81 -27 39 -37
-31 -167 -147 -199 -177 -15 -14 -56 -50 -91 -81 -35 -31 -76 -67 -90 -80
-114 -104 -183 -165 -194 -171 -7 -5 18 56 57 135 38 78 84 171 101 207 18 36
35 67 40 68 4 2 7 9 7 16 0 7 25 62 55 121 30 60 55 115 55 122 0 7 5 13 10
13 6 0 10 4 10 10 0 5 36 82 80 171 44 89 80 168 80 175 0 18 -37 18 -47 0 -4
-8 -64 -74 -133 -147 -69 -72 -138 -147 -155 -164 -16 -18 -82 -88 -146 -156
-64 -68 -133 -142 -154 -164 -20 -22 -89 -96 -153 -164 -65 -68 -134 -141
-154 -164 -21 -22 -38 -38 -38 -35 0 6 23 63 45 113 28 62 248 577 250 585 0
3 11 27 23 54 12 27 22 50 22 52 0 2 12 29 26 61 14 32 34 76 43 98 10 22 26
62 36 88 10 26 22 50 26 53 5 3 9 12 9 21 0 8 7 31 16 50 13 26 14 37 5 46
-15 15 -8 22 -254 -273 -76 -91 -148 -176 -161 -190 -12 -14 -42 -49 -67 -79
-44 -55 -55 -68 -95 -112 -17 -19 -164 -195 -254 -302 -8 -10 -23 -28 -33 -40
-10 -12 -37 -44 -60 -71 -23 -28 -51 -60 -62 -73 -11 -12 -33 -39 -50 -59 -28
-35 -122 -114 -283 -237 -36 -28 -73 -56 -82 -63 -8 -8 -76 -61 -150 -119
l-135 -106 -30 38 c-16 20 -65 74 -108 118 l-77 80 6 65 c3 35 7 67 9 70 2 3
6 37 10 75 3 39 8 81 10 95 2 14 7 50 11 80 3 30 7 66 9 80 17 130 17 160 2
160 -15 0 -33 -19 -67 -70 -8 -12 -21 -28 -27 -36 -7 -7 -13 -15 -13 -18 0 -3
-15 -25 -32 -49 -38 -50 -46 -61 -129 -179 l-61 -86 -44 23 c-24 13 -61 29
-82 36 -20 6 -41 15 -47 19 -18 12 -139 47 -192 55 -12 2 -25 5 -30 8 -40 24
-409 30 -513 8 -131 -28 -217 -54 -315 -97 -55 -24 -102 -44 -106 -44 -3 0
-26 28 -50 63 -24 34 -47 67 -52 72 -4 6 -53 74 -109 153 -55 78 -106 142
-113 142 -15 0 -28 -27 -19 -41 3 -5 7 -28 9 -52 8 -80 24 -216 31 -262 7 -45
14 -104 19 -160 3 -27 7 -61 10 -75 5 -22 -7 -39 -77 -110 -46 -47 -96 -102
-112 -122 l-28 -37 -31 22 c-46 33 -68 50 -89 70 -10 9 -20 17 -23 17 -3 0
-15 9 -27 19 -25 21 -214 170 -268 211 -107 81 -190 153 -225 196 -21 27 -42
51 -45 54 -3 3 -53 61 -110 130 -99 118 -142 169 -165 194 -6 6 -20 23 -31 38
-12 15 -41 51 -66 80 -25 29 -78 91 -117 138 -40 47 -80 94 -89 105 -10 11
-54 63 -97 115 -44 52 -85 100 -91 106 -5 6 -26 30 -45 54 -18 23 -42 52 -52
63 -10 12 -37 43 -59 70 -42 49 -52 55 -64 36z"/>
</g>
</svg>
