<?xml version="1.0" standalone="no"?>
<!DOCTYPE svg PUBLIC "-//W3C//DTD SVG 20010904//EN"
 "http://www.w3.org/TR/2001/REC-SVG-20010904/DTD/svg10.dtd">
<svg version="1.0" xmlns="http://www.w3.org/2000/svg"
 width="611.000000pt" height="611.000000pt" viewBox="0 0 611.000000 611.000000"
 preserveAspectRatio="xMidYMid meet">
<metadata>
Created by potrace 1.11, written by Peter Selinger 2001-2013
</metadata>
<g transform="translate(0.000000,611.000000) scale(0.100000,-0.100000)"
fill="#000000" stroke="none">
<path d="M3079 6056 c-2 -2 -71 -6 -154 -10 -82 -3 -161 -8 -175 -10 -14 -3
-50 -8 -80 -11 -81 -9 -129 -17 -215 -36 -27 -5 -61 -12 -75 -15 -14 -3 -39
-9 -56 -15 -17 -5 -40 -11 -50 -13 -10 -2 -46 -12 -79 -22 -33 -10 -62 -19
-65 -19 -3 -1 -12 -4 -20 -8 -8 -3 -64 -24 -125 -46 -163 -61 -493 -226 -503
-253 -2 -4 -8 -8 -14 -8 -6 0 -26 -11 -44 -25 -18 -14 -35 -25 -38 -25 -5 0
-35 -21 -111 -78 -128 -95 -199 -157 -330 -287 -94 -94 -144 -149 -243 -270
-45 -54 -102 -135 -102 -144 0 -6 -6 -14 -13 -18 -7 -4 -31 -37 -52 -73 -21
-36 -41 -67 -44 -70 -3 -3 -13 -18 -21 -35 -8 -16 -18 -32 -21 -35 -3 -3 -30
-54 -60 -115 -30 -60 -58 -113 -64 -117 -5 -4 -7 -8 -2 -8 4 0 -1 -17 -12 -37
-18 -37 -92 -228 -95 -248 -1 -5 -5 -16 -9 -22 -5 -7 -10 -21 -12 -31 -1 -9
-9 -37 -16 -62 -7 -25 -13 -47 -14 -50 0 -3 -4 -14 -8 -25 -3 -11 -8 -31 -11
-45 -2 -14 -9 -43 -14 -65 -6 -22 -14 -60 -17 -85 -4 -24 -8 -47 -10 -50 -2
-3 -7 -33 -10 -65 -4 -33 -9 -69 -11 -80 -23 -109 -26 -735 -4 -735 3 0 6 -19
8 -43 1 -23 7 -64 12 -92 5 -27 12 -66 15 -85 28 -167 122 -464 205 -646 17
-35 30 -68 30 -73 0 -5 7 -14 15 -21 9 -7 13 -15 11 -18 -3 -3 3 -17 13 -31
10 -14 21 -35 25 -46 8 -21 135 -236 145 -245 3 -3 11 -12 16 -21 43 -69 79
-117 198 -264 73 -90 328 -337 422 -408 5 -4 33 -25 60 -46 70 -54 215 -151
226 -151 5 0 9 -4 9 -10 0 -5 5 -10 10 -10 6 0 27 -11 48 -24 57 -36 252 -136
252 -129 0 3 9 -2 20 -12 11 -10 20 -15 20 -11 0 4 12 0 28 -8 22 -13 65 -32
92 -41 3 -1 16 -6 30 -12 53 -21 177 -63 235 -78 102 -28 209 -54 240 -59 17
-2 30 -5 30 -6 0 -1 9 -3 20 -4 11 -2 39 -6 63 -10 23 -3 59 -8 80 -11 21 -3
48 -7 60 -10 116 -22 534 -21 687 1 17 3 48 7 70 9 22 3 51 7 65 10 30 6 61
12 114 19 21 4 42 9 47 12 5 2 21 6 36 8 50 7 138 32 308 89 87 29 123 43 230
90 96 42 342 171 355 186 7 9 42 30 66 40 11 5 27 15 35 23 8 7 38 29 66 48
29 19 53 38 53 43 0 4 5 7 10 7 21 0 243 193 346 300 121 126 156 167 240 276
69 90 194 278 194 290 0 4 6 15 14 23 43 50 239 482 254 561 1 3 10 31 21 63
11 31 18 57 16 57 -3 0 2 17 9 38 13 33 26 83 42 162 18 90 34 183 39 229 4
30 8 61 10 70 1 9 6 61 10 116 12 175 8 361 -11 540 -2 22 -6 56 -8 75 -2 19
-8 62 -14 95 -6 33 -13 71 -16 85 -2 14 -10 48 -16 75 -7 28 -14 59 -15 70 -7
44 -84 286 -116 363 -5 12 -13 32 -18 45 -35 86 -124 272 -142 293 -6 8 -8 14
-4 14 5 0 1 8 -7 18 -8 9 -30 44 -48 77 -19 33 -37 62 -42 63 -4 2 -8 8 -8 14
0 13 -148 221 -195 274 -5 6 -23 28 -40 50 -43 55 -291 303 -350 349 -27 22
-60 49 -72 60 -31 28 -41 36 -98 75 -27 19 -51 38 -53 43 -2 4 -10 7 -18 7 -8
0 -14 4 -14 8 0 5 -10 14 -22 21 -27 14 -48 27 -106 64 -88 57 -285 158 -392
201 -36 15 -74 31 -85 36 -29 13 -256 88 -285 94 -14 3 -58 14 -98 25 -40 10
-73 19 -75 19 -1 0 -18 3 -37 7 -19 3 -42 7 -50 9 -28 5 -105 16 -145 20 -22
3 -51 7 -65 10 -13 3 -85 8 -159 11 -73 3 -137 8 -141 10 -4 2 -9 3 -11 1z"/>
</g>
</svg>
