<?xml version="1.0" standalone="no"?>
<!DOCTYPE svg PUBLIC "-//W3C//DTD SVG 20010904//EN"
 "http://www.w3.org/TR/2001/REC-SVG-20010904/DTD/svg10.dtd">
<svg version="1.0" xmlns="http://www.w3.org/2000/svg"
 width="952.000000pt" height="952.000000pt" viewBox="0 0 952.000000 952.000000"
 preserveAspectRatio="xMidYMid meet">
<metadata>
Created by potrace 1.11, written by Peter Selinger 2001-2013
</metadata>
<g transform="translate(0.000000,952.000000) scale(0.100000,-0.100000)"
fill="#000000" stroke="none">
<path d="M1300 9426 c0 -2 15 -19 33 -38 17 -19 55 -61 82 -93 28 -32 65 -73
83 -90 17 -18 32 -35 32 -38 0 -3 15 -21 33 -39 41 -44 120 -133 172 -193 22
-26 54 -62 70 -80 121 -131 107 -94 119 -305 2 -36 7 -105 10 -155 15 -218 17
-255 21 -345 3 -52 5 -95 6 -95 2 0 7 -70 10 -167 2 -54 8 -98 14 -98 5 0 4
-5 -2 -11 -7 -7 -8 -20 -4 -33 4 -11 7 -49 7 -84 -1 -34 1 -62 4 -62 3 0 5
-26 4 -58 0 -31 2 -61 4 -66 3 -4 6 -43 7 -85 3 -67 12 -226 20 -346 2 -22 6
-87 10 -145 4 -58 8 -127 10 -155 2 -27 6 -104 9 -170 3 -66 6 -120 7 -120 0
0 2 -8 4 -17 5 -29 -21 -13 -105 62 -16 14 -48 41 -71 60 -24 19 -51 43 -61
53 -10 9 -20 17 -23 17 -3 0 -13 8 -23 18 -10 9 -39 34 -64 54 -24 21 -48 41
-53 45 -23 22 32 -54 122 -167 7 -8 44 -55 83 -105 39 -49 82 -103 95 -120 28
-35 31 -51 10 -53 -8 -1 -22 -3 -30 -4 -8 -1 -15 -4 -15 -8 0 -3 -10 -7 -22
-7 -13 -1 -57 -10 -98 -21 -171 -46 -193 -51 -201 -46 -5 3 -9 0 -9 -6 0 -6
-6 -10 -12 -9 -7 1 -20 0 -28 -4 -12 -4 -169 -43 -212 -53 -5 -1 -9 -2 -10 -4
-2 -1 -10 -3 -18 -5 -8 -1 -33 -8 -55 -14 -23 -6 -51 -9 -63 -6 -13 2 -58 7
-100 11 -42 3 -85 8 -94 9 -9 2 -49 6 -90 10 -40 3 -84 8 -98 10 -14 2 -56 7
-95 10 -38 4 -88 8 -110 11 -70 8 -128 14 -190 19 -33 3 -70 7 -83 10 -12 2
-47 5 -77 6 -30 1 -55 5 -55 8 0 3 -24 6 -53 7 -28 0 -71 3 -95 6 -56 7 -43
-4 38 -32 36 -13 128 -47 205 -77 77 -29 181 -69 230 -88 50 -19 104 -40 120
-46 17 -7 33 -13 37 -13 3 -1 10 -4 14 -8 4 -5 14 -8 21 -8 8 0 33 -8 56 -19
23 -10 87 -35 142 -55 104 -39 110 -44 161 -136 17 -30 48 -84 68 -118 20 -35
36 -68 36 -73 0 -5 5 -9 10 -9 6 0 10 -4 10 -10 0 -8 69 -133 100 -180 5 -8
16 -28 25 -45 8 -16 25 -46 36 -65 12 -19 34 -57 50 -85 15 -27 43 -77 63
-110 20 -33 44 -76 54 -95 9 -19 41 -75 70 -123 28 -48 52 -89 52 -91 0 -3 19
-37 43 -78 24 -40 56 -94 70 -120 50 -89 80 -143 91 -163 6 -11 13 -22 16 -25
3 -3 11 -16 18 -28 12 -21 10 -30 -14 -75 -14 -29 -35 -64 -45 -79 -11 -14
-19 -29 -19 -32 0 -3 -16 -30 -35 -60 -19 -30 -35 -59 -35 -64 0 -4 -5 -13
-12 -20 -7 -7 -27 -38 -44 -70 l-32 -57 -335 0 c-185 0 -333 -3 -329 -7 7 -6
171 -72 182 -73 3 0 24 -8 45 -17 68 -29 219 -89 236 -93 9 -2 36 -13 59 -24
24 -11 47 -18 51 -15 5 3 9 1 9 -4 0 -4 24 -16 53 -25 28 -9 64 -28 79 -42 15
-14 32 -25 37 -25 6 0 16 -9 23 -20 7 -11 17 -20 21 -20 5 0 21 -10 36 -22 15
-13 43 -34 61 -48 18 -14 57 -44 86 -68 29 -23 57 -42 62 -42 6 0 12 -4 14 -8
3 -9 236 -192 243 -192 5 0 21 -14 89 -72 17 -15 37 -28 44 -28 11 0 16 -12
13 -32 -2 -20 -13 -77 -26 -138 -8 -38 -17 -82 -20 -97 -3 -16 -7 -39 -10 -53
-3 -14 -8 -36 -11 -50 -6 -34 -13 -71 -19 -97 -3 -13 -7 -33 -10 -45 -2 -13
-10 -45 -16 -71 -6 -26 -9 -51 -6 -54 3 -3 -2 -13 -11 -24 -21 -22 -180 -129
-192 -129 -4 0 -10 -4 -12 -8 -1 -4 -46 -36 -98 -70 l-94 -63 74 6 c41 3 91 7
110 10 76 9 138 15 200 21 36 3 80 7 98 9 18 2 38 -2 45 -8 7 -7 19 -13 27
-15 7 -2 25 -11 39 -21 14 -10 55 -34 91 -53 36 -20 97 -54 137 -76 39 -23 89
-51 110 -63 21 -12 52 -30 68 -40 17 -10 39 -23 51 -28 11 -5 52 -28 90 -50
38 -23 75 -45 83 -49 8 -4 63 -80 122 -167 59 -88 112 -165 118 -172 6 -7 11
-17 11 -23 0 -5 4 -10 9 -10 5 0 11 -8 14 -17 5 -15 158 -244 185 -278 8 -10
96 -145 216 -330 36 -55 70 -105 75 -112 6 -7 11 -15 11 -18 0 -3 20 -34 45
-69 25 -36 45 -70 45 -75 0 -6 5 -11 10 -11 6 0 10 -5 10 -11 0 -5 19 -38 43
-72 23 -34 44 -66 47 -72 3 -5 23 -36 44 -68 l39 -57 36 21 c49 30 83 49 171
99 41 24 108 62 147 86 40 24 75 44 78 44 2 0 34 18 70 40 36 22 70 40 75 40
5 0 32 -14 60 -30 28 -17 55 -30 60 -30 6 0 10 -4 10 -10 0 -5 5 -10 10 -10 6
0 27 -11 48 -23 20 -13 57 -35 82 -49 95 -53 120 -68 162 -95 24 -15 45 -28
48 -28 7 -1 49 -24 76 -42 20 -13 25 -8 105 114 46 70 86 132 88 138 2 5 15
24 28 41 12 17 23 36 23 41 0 6 7 14 16 17 8 3 13 10 10 15 -4 5 -3 11 1 13
11 4 143 206 143 217 0 5 3 11 8 13 10 4 82 116 82 128 0 5 4 10 8 10 5 0 15
12 23 28 8 15 16 29 19 32 3 3 62 88 130 190 68 102 130 191 137 198 7 8 11
17 8 22 -3 5 -1 10 3 12 12 4 102 136 102 148 0 5 3 10 8 10 4 0 30 36 57 79
28 44 57 82 65 85 8 3 40 19 70 37 30 17 80 45 110 62 30 17 72 41 92 54 21
13 42 23 48 23 5 0 10 4 10 9 0 5 10 13 23 17 12 3 63 31 114 60 50 30 96 54
102 54 6 0 11 5 11 10 0 6 4 10 10 10 5 0 33 14 62 31 55 33 72 35 173 25 33
-3 80 -8 105 -10 25 -2 72 -7 105 -10 33 -3 84 -8 114 -11 29 -3 57 -8 62 -11
5 -3 9 -2 8 3 0 9 -95 73 -108 73 -5 0 -11 3 -13 8 -4 10 -217 152 -229 152
-5 0 -9 5 -9 10 0 6 -6 10 -13 10 -7 0 -18 19 -24 42 -11 43 -49 220 -57 271
-3 15 -7 35 -10 45 -8 26 -17 74 -21 107 -2 17 -4 30 -5 30 -2 0 -4 9 -6 20
-1 11 -5 31 -8 45 -4 14 -9 38 -12 54 -2 16 -7 32 -9 36 -5 8 16 26 105 94 36
27 67 53 68 58 2 4 10 8 17 8 7 0 15 3 17 8 2 4 37 33 78 64 42 32 85 66 97
78 12 11 26 20 31 20 5 0 20 10 33 23 13 13 62 52 109 87 47 35 87 68 88 72 2
4 10 8 17 8 7 0 15 3 17 8 12 28 105 78 243 131 88 34 174 68 190 76 17 7 41
16 55 20 14 4 39 13 55 21 17 7 64 26 105 42 41 16 84 33 95 37 11 5 25 7 30
6 6 -2 6 1 2 6 -5 4 -157 8 -339 8 l-331 0 -16 30 c-15 27 -36 62 -106 181
-71 118 -85 145 -85 154 0 5 -4 10 -9 10 -5 0 -14 13 -21 29 -10 26 -9 34 14
70 14 22 26 42 26 44 0 2 23 43 50 91 28 48 50 91 50 96 0 6 5 10 11 10 5 0 7
5 4 10 -3 6 -2 10 3 10 5 0 23 26 38 58 16 31 32 59 37 60 4 2 7 8 7 12 0 5
24 50 54 99 30 49 51 92 48 95 -3 3 0 6 6 6 7 0 12 6 13 13 0 6 14 32 29 57
16 25 39 65 51 90 12 25 25 47 28 50 4 3 25 37 46 75 67 121 73 133 99 174 15
22 26 42 26 44 0 2 23 44 52 93 28 49 59 103 68 119 9 17 29 52 45 80 17 27
37 63 46 80 15 27 45 41 295 137 153 59 286 109 294 112 25 9 109 41 250 95
125 49 153 58 173 60 4 1 7 6 7 11 0 6 -10 8 -22 5 -13 -2 -45 -7 -73 -10 -27
-2 -60 -6 -72 -9 -14 -3 -23 0 -23 7 0 9 -2 9 -8 1 -6 -11 -39 -15 -212 -29
-25 -2 -63 -7 -85 -10 -22 -3 -62 -7 -90 -9 -27 -3 -75 -7 -105 -10 -30 -4
-75 -9 -100 -11 -25 -3 -72 -8 -105 -11 -33 -3 -71 -7 -85 -9 -27 -4 -156 -17
-205 -20 -16 -1 -37 1 -46 6 -9 4 -27 10 -40 13 -19 3 -111 25 -174 41 -5 1
-17 4 -25 8 -8 3 -82 22 -165 42 -82 20 -183 45 -222 54 -40 10 -75 16 -78 13
-3 -3 -5 0 -5 7 0 7 -5 9 -10 6 -6 -3 -10 1 -10 9 0 8 8 20 18 25 9 6 14 11
10 11 -6 0 195 261 287 373 30 35 13 28 -43 -19 -31 -27 -62 -53 -68 -59 -6
-5 -28 -23 -50 -40 -21 -16 -51 -42 -66 -57 -16 -16 -31 -28 -33 -28 -6 0 -55
-42 -93 -78 -29 -28 -38 -23 -35 20 1 18 4 71 7 118 3 47 8 126 12 175 3 50 7
115 9 145 5 80 15 246 20 315 3 33 7 104 10 158 2 54 7 102 10 108 4 5 0 9 -7
9 -8 0 -9 3 -3 8 6 4 11 25 12 47 0 22 4 85 8 140 6 103 10 163 19 320 11 174
15 241 22 330 3 50 8 115 9 145 2 30 6 105 10 165 3 61 7 128 8 150 1 27 10
48 27 66 14 15 38 42 54 60 38 43 169 192 176 199 3 3 37 41 75 85 39 44 79
89 90 101 11 11 45 49 75 84 30 35 64 73 75 84 11 12 26 29 34 39 12 15 12 17
-3 11 -9 -3 -16 -10 -16 -15 0 -5 -6 -9 -13 -9 -7 0 -23 -9 -35 -20 -12 -11
-24 -20 -28 -20 -4 0 -22 -11 -40 -25 -18 -14 -35 -25 -39 -25 -3 0 -15 -9
-27 -20 -12 -11 -28 -20 -35 -20 -7 0 -13 -4 -13 -10 0 -5 -6 -10 -13 -10 -8
0 -22 -9 -32 -20 -10 -11 -21 -20 -25 -20 -4 0 -57 -34 -118 -75 -61 -41 -115
-75 -120 -75 -6 0 -12 -4 -14 -8 -1 -5 -43 -35 -93 -67 -49 -32 -92 -61 -95
-64 -3 -3 -21 -15 -40 -25 -19 -11 -37 -22 -40 -25 -6 -7 -179 -123 -195 -131
-5 -3 -36 -23 -69 -45 -32 -22 -66 -45 -75 -50 -113 -71 -110 -68 -140 -155
-12 -36 -25 -72 -28 -80 -4 -8 -7 -17 -7 -20 -1 -3 -5 -11 -9 -17 -5 -7 -6
-13 -3 -13 3 0 -4 -24 -15 -52 -20 -51 -42 -115 -43 -130 -1 -3 -4 -10 -9 -14
-4 -4 -7 -14 -7 -23 0 -9 -6 -27 -13 -41 -15 -28 -43 -123 -38 -129 1 -2 -1
-7 -6 -10 -6 -5 -105 -279 -117 -326 -2 -5 -5 -17 -9 -25 -16 -43 -62 -176
-62 -180 -1 -3 -9 -30 -20 -60 -11 -30 -20 -57 -20 -60 -1 -3 -4 -12 -8 -20
-3 -8 -27 -76 -52 -150 -25 -74 -48 -142 -51 -150 -3 -8 -5 -17 -5 -20 -1 -3
-5 -11 -11 -17 -6 -7 -7 -13 -3 -13 4 0 2 -7 -5 -15 -7 -8 -10 -15 -7 -15 9 0
-15 -51 -47 -97 -16 -24 -33 -43 -38 -43 -5 0 -7 -4 -4 -9 4 -5 3 -11 -2 -13
-6 -2 -39 -46 -182 -238 -10 -14 -81 -109 -157 -211 -76 -102 -146 -197 -155
-210 -82 -112 -101 -135 -116 -139 -9 -3 -412 -6 -895 -5 l-879 1 -29 39 c-16
22 -37 51 -47 64 -9 14 -34 46 -54 73 -21 26 -38 51 -38 55 0 5 -9 15 -20 23
-11 8 -20 18 -20 23 0 5 -11 23 -25 41 -14 17 -29 36 -33 41 -38 52 -189 256
-200 270 -4 6 -21 28 -37 50 -17 22 -34 45 -40 52 -28 32 -139 195 -141 206
-2 13 -90 269 -104 302 -4 11 -22 63 -40 115 -17 52 -34 102 -37 110 -3 8 -7
20 -9 25 -6 20 -55 160 -61 175 -8 19 -8 19 -18 55 -4 17 -10 34 -13 40 -6 9
-88 244 -97 275 -4 16 -72 214 -82 240 -14 36 -94 266 -97 280 -12 44 -28 71
-59 94 -19 14 -39 26 -45 26 -6 0 -12 3 -14 8 -1 4 -43 34 -93 66 -49 32 -91
63 -93 68 -2 4 -8 8 -14 8 -10 0 -146 87 -158 101 -3 3 -21 14 -40 25 -19 10
-43 26 -53 35 -10 9 -33 25 -52 35 -19 10 -35 22 -35 26 0 5 -5 8 -10 8 -9 0
-89 50 -125 78 -5 4 -35 23 -65 42 -30 19 -59 38 -65 43 -5 5 -73 49 -150 100
-77 50 -146 97 -153 103 -6 7 -21 16 -32 19 -11 3 -20 11 -20 16 0 6 -4 7 -10
4 -5 -3 -10 -2 -10 3 0 6 -7 12 -15 16 -8 3 -15 4 -15 2z"/>
</g>
</svg>
